<?xml version="1.0" encoding="UTF-8" standalone="no"?>
<!DOCTYPE svg PUBLIC "-//W3C//DTD SVG 1.1//EN" "http://www.w3.org/Graphics/SVG/1.1/DTD/svg11.dtd">
<svg width="100%" height="100%" viewBox="0 0 194 14" version="1.1" xmlns="http://www.w3.org/2000/svg" xmlns:xlink="http://www.w3.org/1999/xlink" xml:space="preserve" xmlns:serif="http://www.serif.com/" style="fill-rule:evenodd;clip-rule:evenodd;stroke-linejoin:round;stroke-miterlimit:2;">
    <g transform="matrix(1,0,0,1,-367.277,-396.227)">
        <g transform="matrix(1.33333,0,0,-1.33333,0,650.667)">
            <g id="path42" transform="matrix(0.1,0,0,0.1,0,0)">
                <path d="M4209.13,1868.38C4128.14,1901.65 3968.64,1904.05 3781.17,1868.24C3763.14,1864.8 3745.27,1861.09 3727.64,1857.13C3727.71,1857.17 3727.73,1857.23 3727.75,1857.27C3698.21,1849.19 3667.82,1841.77 3636.77,1835.23C3620.68,1831.85 3604.86,1828.86 3589.23,1826.09C3588.98,1826.01 3588.75,1825.95 3588.52,1825.85C3586.75,1825.56 3585,1825.3 3583.23,1825.02C3581.11,1824.65 3578.92,1824.23 3576.79,1823.89C3577.02,1823.96 3577.27,1824.05 3577.51,1824.13C3414.8,1798.88 3280.91,1806.85 3217.63,1842.3C3300.64,1810.6 3461.7,1810.73 3649.44,1849.18C3657.78,1850.89 3666.06,1852.69 3674.31,1854.5C3710.69,1864.57 3748.51,1873.55 3787.27,1881.16C3799.48,1883.56 3811.53,1885.74 3823.47,1887.79C3823.61,1887.84 3823.75,1887.88 3823.88,1887.94C3825.11,1888.14 3826.33,1888.32 3827.55,1888.51C3827.88,1888.57 3828.23,1888.63 3828.55,1888.68C3828.54,1888.68 3828.51,1888.66 3828.47,1888.66C4001.96,1916.27 4144.75,1907 4209.13,1868.38" style="fill:rgb(35,31,32);fill-opacity:0.5;fill-rule:nonzero;"/>
            </g>
            <g id="path44" transform="matrix(0.1,0,0,0.1,0,0)">
                <path d="M3745.69,1874.39C3664.31,1906.68 3504.8,1907.15 3317.77,1869.06C3299.77,1865.41 3281.95,1861.46 3264.39,1857.3C3264.43,1857.34 3264.46,1857.4 3264.48,1857.44C3235.05,1849 3204.76,1841.21 3173.78,1834.3C3157.73,1830.72 3141.94,1827.54 3126.34,1824.59C3126.11,1824.49 3125.87,1824.43 3125.64,1824.34C3123.88,1824.02 3122.13,1823.75 3120.37,1823.44C3118.23,1823.05 3116.05,1822.6 3113.94,1822.23C3114.17,1822.3 3114.41,1822.4 3114.66,1822.48C2952.27,1795.25 2818.29,1801.6 2754.58,1836.29C2837.96,1805.59 2999.02,1807.68 3186.28,1848.4C3194.6,1850.21 3202.85,1852.11 3211.07,1854.02C3247.34,1864.53 3285.04,1873.96 3323.7,1882.05C3335.89,1884.61 3347.91,1886.93 3359.84,1889.12C3359.95,1889.18 3360.11,1889.22 3360.23,1889.28C3361.46,1889.49 3362.68,1889.69 3363.89,1889.88C3364.23,1889.96 3364.57,1890.02 3364.89,1890.08C3364.88,1890.08 3364.84,1890.06 3364.81,1890.06C3537.96,1919.77 3680.85,1912.23 3745.69,1874.39" style="fill:rgb(35,31,32);fill-opacity:0.5;fill-rule:nonzero;"/>
            </g>
        </g>
    </g>
</svg>
